<?xml version="1.0" encoding="utf-8"?>
<!-- Generator: Adobe Illustrator 19.0.1, SVG Export Plug-In . SVG Version: 6.00 Build 0)  -->
<svg version="1.1" id="Layer_1" xmlns="http://www.w3.org/2000/svg" xmlns:xlink="http://www.w3.org/1999/xlink" x="0px" y="0px"
	 viewBox="-227 377.8 157 39.2" style="enable-background:new -227 377.8 157 39.2;" xml:space="preserve">
<style type="text/css">
	.st0{fill:#FFFFFF;}
</style>
<g>
	<rect x="-210.5" y="399.1" class="st0" width="6" height="18"/>
	<rect x="-216.1" y="405" class="st0" width="18" height="6"/>
</g>
<g>
	<path class="st0" d="M-217.1,410.9h-9.9v-5.6l13.9-22.6h7l-13.7,22.4h2.7"/>
</g>
<path class="st0" d="M-204.3,392L-204.3,392c0-2.6,2.2-4.1,5.4-4.1c1.7,0,2.9,0.2,4.1,0.5v-0.5c0-2.5-1.5-3.8-4.1-3.8
	c-1.5,0-2.8,0.4-3.9,1l-0.4-1c1.4-0.6,2.7-1.1,4.4-1.1s3,0.5,3.9,1.4c0.8,0.8,1.3,2,1.3,3.5v7.7h-1.2v-2.1c-0.9,1.2-2.4,2.4-4.8,2.4
	C-201.8,395.9-204.3,394.6-204.3,392z M-194.7,390.9v-1.4c-1-0.3-2.4-0.6-4.2-0.6c-2.6,0-4.1,1.2-4.1,2.9l0,0c0,1.8,1.7,2.9,3.6,2.9
	C-196.9,394.8-194.7,393.2-194.7,390.9z"/>
<path class="st0" d="M-190.8,398.2l1.3-2.8c1.3,0.8,2.7,1.2,4.4,1.2c2.5,0,3.7-1.2,3.7-3.6v-0.6c-1.1,1.3-2.3,2.1-4.3,2.1
	c-3,0-5.8-2.2-5.8-6.1l0,0c0-3.9,2.8-6.1,5.8-6.1c2,0,3.2,0.9,4.2,1.9v-1.7h3.7v10.1c0,2.3-0.6,4-1.7,5.1c-1.2,1.2-3.1,1.8-5.6,1.8
	C-187.1,399.5-189.1,399-190.8,398.2z M-181.4,388.4L-181.4,388.4c0-1.8-1.4-3.1-3.2-3.1c-1.8,0-3.2,1.2-3.2,3l0,0
	c0,1.8,1.4,3,3.2,3C-182.8,391.4-181.4,390.2-181.4,388.4z"/>
<path class="st0" d="M-177,389.1L-177,389.1c0-3.8,3-6.8,7.1-6.8c4,0,7,3,7,6.8l0,0c0,3.8-3,6.8-7.1,6.8
	C-174,395.9-177,392.9-177,389.1z M-166.5,389.1L-166.5,389.1c0-2-1.4-3.7-3.4-3.7c-2.1,0-3.4,1.6-3.4,3.6l0,0
	c0,1.9,1.4,3.6,3.4,3.6C-167.8,392.7-166.5,391.1-166.5,389.1z"/>
<path class="st0" d="M-162.3,389.1L-162.3,389.1c0-3.8,3-6.8,7.1-6.8c4,0,7,3,7,6.8l0,0c0,3.8-3,6.8-7.1,6.8
	C-159.3,395.9-162.3,392.9-162.3,389.1z M-151.8,389.1L-151.8,389.1c0-2-1.4-3.7-3.4-3.7c-2.1,0-3.4,1.6-3.4,3.6l0,0
	c0,1.9,1.4,3.6,3.4,3.6C-153.1,392.7-151.8,391.1-151.8,389.1z"/>
<path class="st0" d="M-147.5,389.1L-147.5,389.1c0-4.4,2.9-6.8,5.9-6.8c2,0,3.2,0.9,4.1,1.9v-6.4h3.7v17.8h-3.7v-1.9
	c-0.9,1.2-2.1,2.1-4.1,2.1C-144.6,395.8-147.5,393.4-147.5,389.1z M-137.4,389.1L-137.4,389.1c0-2.2-1.4-3.7-3.2-3.7
	c-1.8,0-3.2,1.4-3.2,3.6l0,0c0,2.2,1.5,3.6,3.2,3.6C-138.9,392.6-137.4,391.3-137.4,389.1z"/>
<path class="st0" d="M-131.7,389.4L-131.7,389.4c0-3.5,2.8-6.6,6.3-6.6c2.3,0,3.8,1.1,5,2.3l-0.9,0.9c-1.1-1.1-2.3-2-4.1-2
	c-2.8,0-5,2.4-5,5.3l0,0c0,3,2.3,5.4,5.1,5.4c1.8,0,3.1-0.9,4.2-2.1l0.8,0.7c-1.3,1.4-2.8,2.5-5.1,2.5
	C-128.9,395.9-131.7,392.9-131.7,389.4z"/>
<path class="st0" d="M-118.9,392L-118.9,392c0-2.6,2.2-4.1,5.4-4.1c1.7,0,2.9,0.2,4.1,0.5v-0.5c0-2.5-1.5-3.8-4.1-3.8
	c-1.5,0-2.8,0.4-3.9,1l-0.4-1c1.4-0.6,2.7-1.1,4.4-1.1c1.7,0,3,0.5,3.9,1.4c0.8,0.8,1.3,2,1.3,3.5v7.7h-1.2v-2.1
	c-0.9,1.2-2.4,2.4-4.8,2.4C-116.4,395.9-118.9,394.6-118.9,392z M-109.3,390.9v-1.4c-1-0.3-2.4-0.6-4.2-0.6c-2.6,0-4.1,1.2-4.1,2.9
	l0,0c0,1.8,1.7,2.9,3.6,2.9C-111.5,394.8-109.3,393.2-109.3,390.9z"/>
<path class="st0" d="M-105.6,390.8v-7.6h1.2v7.4c0,2.6,1.4,4.2,3.9,4.2c2.4,0,4.3-1.9,4.3-4.4v-7.2h1.2v12.4h-1.2v-2.3
	c-0.8,1.5-2.2,2.6-4.5,2.6C-103.8,395.9-105.6,393.7-105.6,390.8z"/>
<path class="st0" d="M-92.5,394l0.7-1c1.4,1,2.9,1.6,4.5,1.6c1.7,0,3-0.9,3-2.4l0,0c0-1.5-1.6-2-3.3-2.5c-2-0.6-4.3-1.2-4.3-3.4l0,0
	c0-2,1.7-3.4,4.1-3.4c1.5,0,3.2,0.5,4.4,1.4l-0.6,1c-1.1-0.8-2.5-1.2-3.8-1.2c-1.7,0-2.8,0.9-2.8,2.2l0,0c0,1.4,1.7,1.9,3.5,2.4
	c2,0.6,4.1,1.3,4.1,3.5l0,0c0,2.2-1.9,3.6-4.3,3.6C-89.2,395.8-91.2,395.1-92.5,394z"/>
<path class="st0" d="M-81.6,389.4L-81.6,389.4c0-3.7,2.5-6.5,5.9-6.5c3.5,0,5.7,2.8,5.7,6.5c0,0.2,0,0.3,0,0.5h-10.3
	c0.2,3.1,2.4,4.9,4.9,4.9c1.9,0,3.2-0.9,4.3-1.9l0.8,0.7c-1.3,1.4-2.8,2.3-5.1,2.3C-78.8,395.9-81.6,393.3-81.6,389.4z M-71.3,388.8
	c-0.2-2.5-1.6-4.8-4.5-4.8c-2.5,0-4.4,2.1-4.6,4.8H-71.3z"/>
</svg>
