<?xml version="1.0" encoding="utf-8"?>
<!-- Generator: Adobe Illustrator 15.1.0, SVG Export Plug-In . SVG Version: 6.00 Build 0)  -->
<!DOCTYPE svg PUBLIC "-//W3C//DTD SVG 1.1//EN" "http://www.w3.org/Graphics/SVG/1.1/DTD/svg11.dtd">
<svg version="1.1" id="Layer_1" xmlns="http://www.w3.org/2000/svg" xmlns:xlink="http://www.w3.org/1999/xlink" x="0px" y="0px"
	 width="1208px" height="280px" viewBox="0 0 1208 280" enable-background="new 0 0 1208 280" xml:space="preserve">
<rect y="238" fill="#F2F2F2" width="73.625" height="42"/>
<rect x="75.625" y="222" fill="#F2F2F2" width="73.625" height="58"/>
<rect x="151.25" y="208" fill="#F2F2F2" width="73.625" height="72"/>
<rect x="226.875" y="192" fill="#F2F2F2" width="73.625" height="88"/>
<rect x="302.5" y="176" fill="#F2F2F2" width="73.625" height="104"/>
<rect x="378.125" y="160" fill="#F2F2F2" width="73.625" height="120"/>
<rect x="453.75" y="144" fill="#F2F2F2" width="73.625" height="136"/>
<rect x="529.375" y="128" fill="#F2F2F2" width="73.625" height="152"/>
<rect x="605" y="112" fill="#F2F2F2" width="73.625" height="168"/>
<rect x="680.625" y="96" fill="#F2F2F2" width="73.625" height="184"/>
<rect x="756.25" y="80" fill="#F2F2F2" width="73.625" height="200"/>
<rect x="831.875" y="64" fill="#F2F2F2" width="73.625" height="216"/>
<rect x="907.5" y="48" fill="#F2F2F2" width="73.625" height="232"/>
<rect x="983.125" y="32" fill="#F2F2F2" width="73.625" height="248"/>
<rect x="1058.75" y="16" fill="#F2F2F2" width="73.625" height="264"/>
<rect x="1134.375" fill="#F2F2F2" width="73.625" height="280"/>
</svg>
